<mxfile host="65bd71144e">
    <diagram id="_NiuC_yrdkO8kt6QhC4k" name="V1">
        <mxGraphModel dx="861" dy="1219" grid="1" gridSize="10" guides="1" tooltips="1" connect="1" arrows="1" fold="1" page="1" pageScale="1" pageWidth="850" pageHeight="1100" math="0" shadow="0">
            <root>
                <mxCell id="0"/>
                <mxCell id="1" parent="0"/>
                <mxCell id="-JBojq7FPXSVw2BBmTVK-1" value="" style="group" vertex="1" connectable="0" parent="1">
                    <mxGeometry x="210" y="110" width="550" height="360" as="geometry"/>
                </mxCell>
                <mxCell id="-JBojq7FPXSVw2BBmTVK-2" value="" style="rounded=1;whiteSpace=wrap;html=1;fontSize=14;container=0;" vertex="1" parent="-JBojq7FPXSVw2BBmTVK-1">
                    <mxGeometry y="30" width="550" height="330" as="geometry"/>
                </mxCell>
                <mxCell id="-JBojq7FPXSVw2BBmTVK-3" value="&lt;font style=&quot;font-size: 16px;&quot;&gt;&lt;b&gt;Channel Context&lt;/b&gt;&lt;/font&gt;" style="text;html=1;strokeColor=none;fillColor=none;align=center;verticalAlign=middle;whiteSpace=wrap;rounded=0;fontSize=14;container=0;" vertex="1" parent="-JBojq7FPXSVw2BBmTVK-1">
                    <mxGeometry x="15" y="44" width="200" height="30" as="geometry"/>
                </mxCell>
                <mxCell id="-JBojq7FPXSVw2BBmTVK-4" value="&lt;font color=&quot;#000000&quot;&gt;&lt;b&gt;Channel&lt;/b&gt;&lt;/font&gt;" style="rounded=1;whiteSpace=wrap;html=1;fontSize=16;fontColor=#FFFFFF;" vertex="1" parent="-JBojq7FPXSVw2BBmTVK-1">
                    <mxGeometry x="227.5" y="130" width="130" height="70" as="geometry"/>
                </mxCell>
                <mxCell id="-JBojq7FPXSVw2BBmTVK-5" value="&lt;font color=&quot;#000000&quot;&gt;&lt;b&gt;ChannelStream&lt;/b&gt;&lt;/font&gt;" style="rounded=1;whiteSpace=wrap;html=1;fontSize=16;fontColor=#FFFFFF;" vertex="1" parent="-JBojq7FPXSVw2BBmTVK-1">
                    <mxGeometry x="390" y="130" width="130" height="70" as="geometry"/>
                </mxCell>
                <mxCell id="-JBojq7FPXSVw2BBmTVK-6" style="edgeStyle=none;html=1;strokeColor=default;strokeWidth=3;fontSize=16;fontColor=#000000;endArrow=none;endFill=0;" edge="1" parent="-JBojq7FPXSVw2BBmTVK-1" source="-JBojq7FPXSVw2BBmTVK-4" target="-JBojq7FPXSVw2BBmTVK-5">
                    <mxGeometry relative="1" as="geometry"/>
                </mxCell>
                <mxCell id="-JBojq7FPXSVw2BBmTVK-7" value="&lt;font color=&quot;#000000&quot;&gt;&lt;b&gt;ChannelDescription&lt;/b&gt;&lt;/font&gt;" style="rounded=1;whiteSpace=wrap;html=1;fontSize=16;fontColor=#FFFFFF;" vertex="1" parent="-JBojq7FPXSVw2BBmTVK-1">
                    <mxGeometry x="205" y="240" width="175" height="90" as="geometry"/>
                </mxCell>
                <mxCell id="-JBojq7FPXSVw2BBmTVK-8" style="edgeStyle=none;html=1;strokeColor=default;strokeWidth=3;fontSize=16;fontColor=#000000;endArrow=none;endFill=0;" edge="1" parent="-JBojq7FPXSVw2BBmTVK-1" source="-JBojq7FPXSVw2BBmTVK-4" target="-JBojq7FPXSVw2BBmTVK-7">
                    <mxGeometry relative="1" as="geometry"/>
                </mxCell>
                <mxCell id="-JBojq7FPXSVw2BBmTVK-9" value="&lt;font color=&quot;#000000&quot;&gt;&lt;b&gt;Follower&lt;/b&gt;&lt;/font&gt;" style="rounded=1;whiteSpace=wrap;html=1;fontSize=16;fontColor=#FFFFFF;" vertex="1" parent="-JBojq7FPXSVw2BBmTVK-1">
                    <mxGeometry x="30" y="130" width="130" height="70" as="geometry"/>
                </mxCell>
                <mxCell id="-JBojq7FPXSVw2BBmTVK-10" style="edgeStyle=none;html=1;strokeColor=default;strokeWidth=3;fontSize=16;fontColor=#000000;endArrow=none;endFill=0;" edge="1" parent="-JBojq7FPXSVw2BBmTVK-1" source="-JBojq7FPXSVw2BBmTVK-4" target="-JBojq7FPXSVw2BBmTVK-9">
                    <mxGeometry relative="1" as="geometry"/>
                </mxCell>
                <mxCell id="-JBojq7FPXSVw2BBmTVK-11" value="&lt;font color=&quot;#000000&quot;&gt;&lt;b&gt;Subscriber&lt;/b&gt;&lt;/font&gt;" style="rounded=1;whiteSpace=wrap;html=1;fontSize=16;fontColor=#FFFFFF;" vertex="1" parent="-JBojq7FPXSVw2BBmTVK-1">
                    <mxGeometry x="30" y="250" width="130" height="70" as="geometry"/>
                </mxCell>
                <mxCell id="-JBojq7FPXSVw2BBmTVK-12" style="edgeStyle=none;html=1;strokeColor=default;strokeWidth=3;fontSize=16;fontColor=#000000;endArrow=none;endFill=0;" edge="1" parent="-JBojq7FPXSVw2BBmTVK-1" source="-JBojq7FPXSVw2BBmTVK-4" target="-JBojq7FPXSVw2BBmTVK-11">
                    <mxGeometry relative="1" as="geometry"/>
                </mxCell>
            </root>
        </mxGraphModel>
    </diagram>
    <diagram id="N3MZFxQlsv-xnbAbyV0t" name="event_storming">
        <mxGraphModel dx="196" dy="2580" grid="1" gridSize="10" guides="1" tooltips="1" connect="1" arrows="1" fold="1" page="1" pageScale="1" pageWidth="850" pageHeight="1100" math="0" shadow="0">
            <root>
                <mxCell id="0"/>
                <mxCell id="1" parent="0"/>
                <mxCell id="zrm-LwTdMj1fT9V9dEw2-1" value="" style="group" parent="1" vertex="1" connectable="0">
                    <mxGeometry x="1170" y="-880" width="2090" height="515" as="geometry"/>
                </mxCell>
                <mxCell id="zrm-LwTdMj1fT9V9dEw2-2" value="" style="rounded=1;whiteSpace=wrap;html=1;fontSize=14;" parent="zrm-LwTdMj1fT9V9dEw2-1" vertex="1">
                    <mxGeometry width="1010" height="515" as="geometry"/>
                </mxCell>
                <mxCell id="zrm-LwTdMj1fT9V9dEw2-3" value="채널방송정보" style="fillColor=#FFC82E;strokeColor=none;fontSize=14;" parent="zrm-LwTdMj1fT9V9dEw2-1" vertex="1">
                    <mxGeometry x="470" y="125" width="100" height="100" as="geometry"/>
                </mxCell>
                <mxCell id="zrm-LwTdMj1fT9V9dEw2-4" value=" 방송 갱신됨" style="fillColor=#FFA12D;strokeColor=none;fontSize=14;" parent="zrm-LwTdMj1fT9V9dEw2-1" vertex="1">
                    <mxGeometry x="550" y="75" width="100" height="90" as="geometry"/>
                </mxCell>
                <mxCell id="zrm-LwTdMj1fT9V9dEw2-5" value="방송 갱신" style="fillColor=#1EB5BD;strokeColor=none;fontSize=14;" parent="zrm-LwTdMj1fT9V9dEw2-1" vertex="1">
                    <mxGeometry x="390" y="75" width="90" height="90" as="geometry"/>
                </mxCell>
                <mxCell id="zrm-LwTdMj1fT9V9dEw2-6" value="채널정보" style="fillColor=#FFC82E;strokeColor=none;fontSize=14;" parent="zrm-LwTdMj1fT9V9dEw2-1" vertex="1">
                    <mxGeometry x="770" y="380" width="100" height="100" as="geometry"/>
                </mxCell>
                <mxCell id="zrm-LwTdMj1fT9V9dEw2-7" value=" 방송 설명&#10;갱신됨" style="fillColor=#FFA12D;strokeColor=none;fontSize=14;" parent="zrm-LwTdMj1fT9V9dEw2-1" vertex="1">
                    <mxGeometry x="850" y="330" width="100" height="90" as="geometry"/>
                </mxCell>
                <mxCell id="zrm-LwTdMj1fT9V9dEw2-8" value="채널 설명&#10;갱신" style="fillColor=#1EB5BD;strokeColor=none;fontSize=14;" parent="zrm-LwTdMj1fT9V9dEw2-1" vertex="1">
                    <mxGeometry x="690" y="330" width="90" height="90" as="geometry"/>
                </mxCell>
                <mxCell id="zrm-LwTdMj1fT9V9dEw2-9" value=" 스트리머" style="fillColor=#FFC82E;strokeColor=none;fontSize=14;" parent="zrm-LwTdMj1fT9V9dEw2-1" vertex="1">
                    <mxGeometry x="640" y="390" width="60" height="70" as="geometry"/>
                </mxCell>
                <mxCell id="zrm-LwTdMj1fT9V9dEw2-10" value="채널" style="fillColor=#FFC82E;strokeColor=none;fontSize=14;" parent="zrm-LwTdMj1fT9V9dEw2-1" vertex="1">
                    <mxGeometry x="115" y="125" width="100" height="100" as="geometry"/>
                </mxCell>
                <mxCell id="zrm-LwTdMj1fT9V9dEw2-11" value="채널 생성됨" style="fillColor=#FFA12D;strokeColor=none;fontSize=14;" parent="zrm-LwTdMj1fT9V9dEw2-1" vertex="1">
                    <mxGeometry x="195" y="75" width="100" height="90" as="geometry"/>
                </mxCell>
                <mxCell id="zrm-LwTdMj1fT9V9dEw2-12" value="채널 생성" style="fillColor=#1EB5BD;strokeColor=none;fontSize=14;" parent="zrm-LwTdMj1fT9V9dEw2-1" vertex="1">
                    <mxGeometry x="35" y="75" width="90" height="90" as="geometry"/>
                </mxCell>
                <mxCell id="zrm-LwTdMj1fT9V9dEw2-13" value="채널" style="fillColor=#FFC82E;strokeColor=none;fontSize=14;" parent="zrm-LwTdMj1fT9V9dEw2-1" vertex="1">
                    <mxGeometry x="790" y="120" width="100" height="100" as="geometry"/>
                </mxCell>
                <mxCell id="zrm-LwTdMj1fT9V9dEw2-14" value="채널 팔로워&#10;등록됨" style="fillColor=#FFA12D;strokeColor=none;fontSize=14;" parent="zrm-LwTdMj1fT9V9dEw2-1" vertex="1">
                    <mxGeometry x="860" y="60" width="100" height="90" as="geometry"/>
                </mxCell>
                <mxCell id="zrm-LwTdMj1fT9V9dEw2-15" value="채널 팔로워&#10;제거됨" style="fillColor=#FFA12D;strokeColor=none;fontSize=14;" parent="zrm-LwTdMj1fT9V9dEw2-1" vertex="1">
                    <mxGeometry x="860" y="190" width="100" height="90" as="geometry"/>
                </mxCell>
                <mxCell id="zrm-LwTdMj1fT9V9dEw2-16" value="채널 팔로워&#10;등록" style="fillColor=#1EB5BD;strokeColor=none;fontSize=14;" parent="zrm-LwTdMj1fT9V9dEw2-1" vertex="1">
                    <mxGeometry x="740" y="60" width="90" height="90" as="geometry"/>
                </mxCell>
                <mxCell id="zrm-LwTdMj1fT9V9dEw2-17" value="채널 팔로워&#10;제거" style="fillColor=#1EB5BD;strokeColor=none;fontSize=14;" parent="zrm-LwTdMj1fT9V9dEw2-1" vertex="1">
                    <mxGeometry x="740" y="190" width="90" height="90" as="geometry"/>
                </mxCell>
                <mxCell id="zrm-LwTdMj1fT9V9dEw2-18" value="&lt;font style=&quot;font-size: 16px;&quot;&gt;&lt;b&gt;Channel Context&lt;/b&gt;&lt;/font&gt;" style="text;html=1;strokeColor=none;fillColor=none;align=center;verticalAlign=middle;whiteSpace=wrap;rounded=0;fontSize=14;" parent="zrm-LwTdMj1fT9V9dEw2-1" vertex="1">
                    <mxGeometry x="15" y="14" width="200" height="30" as="geometry"/>
                </mxCell>
                <mxCell id="zrm-LwTdMj1fT9V9dEw2-19" value="채널" style="fillColor=#FFC82E;strokeColor=none;fontSize=14;" parent="zrm-LwTdMj1fT9V9dEw2-1" vertex="1">
                    <mxGeometry x="110" y="325" width="100" height="100" as="geometry"/>
                </mxCell>
                <mxCell id="zrm-LwTdMj1fT9V9dEw2-20" value="채널 구독자&#10;등록됨" style="fillColor=#FFA12D;strokeColor=none;fontSize=14;" parent="zrm-LwTdMj1fT9V9dEw2-1" vertex="1">
                    <mxGeometry x="180" y="265" width="100" height="90" as="geometry"/>
                </mxCell>
                <mxCell id="zrm-LwTdMj1fT9V9dEw2-21" value="채널 구독자&#10;제거됨" style="fillColor=#FFA12D;strokeColor=none;fontSize=14;" parent="zrm-LwTdMj1fT9V9dEw2-1" vertex="1">
                    <mxGeometry x="180" y="395" width="100" height="90" as="geometry"/>
                </mxCell>
                <mxCell id="zrm-LwTdMj1fT9V9dEw2-22" value="채널 구독자&#10;등록" style="fillColor=#1EB5BD;strokeColor=none;fontSize=14;" parent="zrm-LwTdMj1fT9V9dEw2-1" vertex="1">
                    <mxGeometry x="60" y="265" width="90" height="90" as="geometry"/>
                </mxCell>
                <mxCell id="zrm-LwTdMj1fT9V9dEw2-23" value="채널 구독자&#10;제거" style="fillColor=#1EB5BD;strokeColor=none;fontSize=14;" parent="zrm-LwTdMj1fT9V9dEw2-1" vertex="1">
                    <mxGeometry x="60" y="395" width="90" height="90" as="geometry"/>
                </mxCell>
                <mxCell id="WndKB6batQl35y3FU4yr-5" value="Table" style="shape=table;startSize=30;container=1;collapsible=1;childLayout=tableLayout;fixedRows=1;rowLines=0;fontStyle=1;align=center;resizeLast=1;" parent="1" vertex="1">
                    <mxGeometry x="1290" y="300" width="180" height="150" as="geometry"/>
                </mxCell>
                <mxCell id="WndKB6batQl35y3FU4yr-6" value="" style="shape=tableRow;horizontal=0;startSize=0;swimlaneHead=0;swimlaneBody=0;fillColor=none;collapsible=0;dropTarget=0;points=[[0,0.5],[1,0.5]];portConstraint=eastwest;top=0;left=0;right=0;bottom=1;" parent="WndKB6batQl35y3FU4yr-5" vertex="1">
                    <mxGeometry y="30" width="180" height="30" as="geometry"/>
                </mxCell>
                <mxCell id="WndKB6batQl35y3FU4yr-7" value="PK" style="shape=partialRectangle;connectable=0;fillColor=none;top=0;left=0;bottom=0;right=0;fontStyle=1;overflow=hidden;" parent="WndKB6batQl35y3FU4yr-6" vertex="1">
                    <mxGeometry width="30" height="30" as="geometry">
                        <mxRectangle width="30" height="30" as="alternateBounds"/>
                    </mxGeometry>
                </mxCell>
                <mxCell id="WndKB6batQl35y3FU4yr-8" value="UniqueID" style="shape=partialRectangle;connectable=0;fillColor=none;top=0;left=0;bottom=0;right=0;align=left;spacingLeft=6;fontStyle=5;overflow=hidden;" parent="WndKB6batQl35y3FU4yr-6" vertex="1">
                    <mxGeometry x="30" width="150" height="30" as="geometry">
                        <mxRectangle width="150" height="30" as="alternateBounds"/>
                    </mxGeometry>
                </mxCell>
                <mxCell id="WndKB6batQl35y3FU4yr-9" value="" style="shape=tableRow;horizontal=0;startSize=0;swimlaneHead=0;swimlaneBody=0;fillColor=none;collapsible=0;dropTarget=0;points=[[0,0.5],[1,0.5]];portConstraint=eastwest;top=0;left=0;right=0;bottom=0;" parent="WndKB6batQl35y3FU4yr-5" vertex="1">
                    <mxGeometry y="60" width="180" height="30" as="geometry"/>
                </mxCell>
                <mxCell id="WndKB6batQl35y3FU4yr-10" value="" style="shape=partialRectangle;connectable=0;fillColor=none;top=0;left=0;bottom=0;right=0;editable=1;overflow=hidden;" parent="WndKB6batQl35y3FU4yr-9" vertex="1">
                    <mxGeometry width="30" height="30" as="geometry">
                        <mxRectangle width="30" height="30" as="alternateBounds"/>
                    </mxGeometry>
                </mxCell>
                <mxCell id="WndKB6batQl35y3FU4yr-11" value="Row 1" style="shape=partialRectangle;connectable=0;fillColor=none;top=0;left=0;bottom=0;right=0;align=left;spacingLeft=6;overflow=hidden;" parent="WndKB6batQl35y3FU4yr-9" vertex="1">
                    <mxGeometry x="30" width="150" height="30" as="geometry">
                        <mxRectangle width="150" height="30" as="alternateBounds"/>
                    </mxGeometry>
                </mxCell>
                <mxCell id="WndKB6batQl35y3FU4yr-12" value="" style="shape=tableRow;horizontal=0;startSize=0;swimlaneHead=0;swimlaneBody=0;fillColor=none;collapsible=0;dropTarget=0;points=[[0,0.5],[1,0.5]];portConstraint=eastwest;top=0;left=0;right=0;bottom=0;" parent="WndKB6batQl35y3FU4yr-5" vertex="1">
                    <mxGeometry y="90" width="180" height="30" as="geometry"/>
                </mxCell>
                <mxCell id="WndKB6batQl35y3FU4yr-13" value="" style="shape=partialRectangle;connectable=0;fillColor=none;top=0;left=0;bottom=0;right=0;editable=1;overflow=hidden;" parent="WndKB6batQl35y3FU4yr-12" vertex="1">
                    <mxGeometry width="30" height="30" as="geometry">
                        <mxRectangle width="30" height="30" as="alternateBounds"/>
                    </mxGeometry>
                </mxCell>
                <mxCell id="WndKB6batQl35y3FU4yr-14" value="Row 2" style="shape=partialRectangle;connectable=0;fillColor=none;top=0;left=0;bottom=0;right=0;align=left;spacingLeft=6;overflow=hidden;" parent="WndKB6batQl35y3FU4yr-12" vertex="1">
                    <mxGeometry x="30" width="150" height="30" as="geometry">
                        <mxRectangle width="150" height="30" as="alternateBounds"/>
                    </mxGeometry>
                </mxCell>
                <mxCell id="WndKB6batQl35y3FU4yr-15" value="" style="shape=tableRow;horizontal=0;startSize=0;swimlaneHead=0;swimlaneBody=0;fillColor=none;collapsible=0;dropTarget=0;points=[[0,0.5],[1,0.5]];portConstraint=eastwest;top=0;left=0;right=0;bottom=0;" parent="WndKB6batQl35y3FU4yr-5" vertex="1">
                    <mxGeometry y="120" width="180" height="30" as="geometry"/>
                </mxCell>
                <mxCell id="WndKB6batQl35y3FU4yr-16" value="" style="shape=partialRectangle;connectable=0;fillColor=none;top=0;left=0;bottom=0;right=0;editable=1;overflow=hidden;" parent="WndKB6batQl35y3FU4yr-15" vertex="1">
                    <mxGeometry width="30" height="30" as="geometry">
                        <mxRectangle width="30" height="30" as="alternateBounds"/>
                    </mxGeometry>
                </mxCell>
                <mxCell id="WndKB6batQl35y3FU4yr-17" value="Row 3" style="shape=partialRectangle;connectable=0;fillColor=none;top=0;left=0;bottom=0;right=0;align=left;spacingLeft=6;overflow=hidden;" parent="WndKB6batQl35y3FU4yr-15" vertex="1">
                    <mxGeometry x="30" width="150" height="30" as="geometry">
                        <mxRectangle width="150" height="30" as="alternateBounds"/>
                    </mxGeometry>
                </mxCell>
            </root>
        </mxGraphModel>
    </diagram>
    <diagram id="rrRWOHWCN6pNSkYYTB03" name="context_map">
        <mxGraphModel dx="732" dy="2136" grid="1" gridSize="10" guides="1" tooltips="1" connect="1" arrows="1" fold="1" page="1" pageScale="1" pageWidth="850" pageHeight="1100" math="0" shadow="0">
            <root>
                <mxCell id="0"/>
                <mxCell id="1" parent="0"/>
                <mxCell id="SegviojQ2A9W4i4VjnuJ-1" value="" style="group" parent="1" vertex="1" connectable="0">
                    <mxGeometry x="270" y="-120" width="550" height="360" as="geometry"/>
                </mxCell>
                <mxCell id="SegviojQ2A9W4i4VjnuJ-2" value="" style="rounded=1;whiteSpace=wrap;html=1;fontSize=14;container=0;" parent="SegviojQ2A9W4i4VjnuJ-1" vertex="1">
                    <mxGeometry y="30" width="550" height="330" as="geometry"/>
                </mxCell>
                <mxCell id="SegviojQ2A9W4i4VjnuJ-3" value="&lt;font style=&quot;font-size: 16px;&quot;&gt;&lt;b&gt;Channel Context&lt;/b&gt;&lt;/font&gt;" style="text;html=1;strokeColor=none;fillColor=none;align=center;verticalAlign=middle;whiteSpace=wrap;rounded=0;fontSize=14;container=0;" parent="SegviojQ2A9W4i4VjnuJ-1" vertex="1">
                    <mxGeometry x="15" y="44" width="200" height="30" as="geometry"/>
                </mxCell>
                <mxCell id="SegviojQ2A9W4i4VjnuJ-4" value="&lt;font color=&quot;#000000&quot;&gt;&lt;b&gt;Channel&lt;/b&gt;&lt;/font&gt;" style="rounded=1;whiteSpace=wrap;html=1;fontSize=16;fontColor=#FFFFFF;" parent="SegviojQ2A9W4i4VjnuJ-1" vertex="1">
                    <mxGeometry x="227.5" y="130" width="130" height="70" as="geometry"/>
                </mxCell>
                <mxCell id="SegviojQ2A9W4i4VjnuJ-5" value="&lt;font color=&quot;#000000&quot;&gt;&lt;b&gt;ChannelStream&lt;/b&gt;&lt;/font&gt;" style="rounded=1;whiteSpace=wrap;html=1;fontSize=16;fontColor=#FFFFFF;" parent="SegviojQ2A9W4i4VjnuJ-1" vertex="1">
                    <mxGeometry x="390" y="130" width="130" height="70" as="geometry"/>
                </mxCell>
                <mxCell id="SegviojQ2A9W4i4VjnuJ-6" style="edgeStyle=none;html=1;strokeColor=default;strokeWidth=3;fontSize=16;fontColor=#000000;endArrow=none;endFill=0;" parent="SegviojQ2A9W4i4VjnuJ-1" source="SegviojQ2A9W4i4VjnuJ-4" target="SegviojQ2A9W4i4VjnuJ-5" edge="1">
                    <mxGeometry relative="1" as="geometry"/>
                </mxCell>
                <mxCell id="SegviojQ2A9W4i4VjnuJ-7" value="&lt;font color=&quot;#000000&quot;&gt;&lt;b&gt;ChannelDescription&lt;/b&gt;&lt;/font&gt;" style="rounded=1;whiteSpace=wrap;html=1;fontSize=16;fontColor=#FFFFFF;" parent="SegviojQ2A9W4i4VjnuJ-1" vertex="1">
                    <mxGeometry x="205" y="240" width="175" height="90" as="geometry"/>
                </mxCell>
                <mxCell id="SegviojQ2A9W4i4VjnuJ-8" style="edgeStyle=none;html=1;strokeColor=default;strokeWidth=3;fontSize=16;fontColor=#000000;endArrow=none;endFill=0;" parent="SegviojQ2A9W4i4VjnuJ-1" source="SegviojQ2A9W4i4VjnuJ-4" target="SegviojQ2A9W4i4VjnuJ-7" edge="1">
                    <mxGeometry relative="1" as="geometry"/>
                </mxCell>
                <mxCell id="SegviojQ2A9W4i4VjnuJ-9" value="&lt;font color=&quot;#000000&quot;&gt;&lt;b&gt;Follower&lt;/b&gt;&lt;/font&gt;" style="rounded=1;whiteSpace=wrap;html=1;fontSize=16;fontColor=#FFFFFF;" parent="SegviojQ2A9W4i4VjnuJ-1" vertex="1">
                    <mxGeometry x="30" y="130" width="130" height="70" as="geometry"/>
                </mxCell>
                <mxCell id="SegviojQ2A9W4i4VjnuJ-10" style="edgeStyle=none;html=1;strokeColor=default;strokeWidth=3;fontSize=16;fontColor=#000000;endArrow=none;endFill=0;" parent="SegviojQ2A9W4i4VjnuJ-1" source="SegviojQ2A9W4i4VjnuJ-4" target="SegviojQ2A9W4i4VjnuJ-9" edge="1">
                    <mxGeometry relative="1" as="geometry"/>
                </mxCell>
                <mxCell id="SegviojQ2A9W4i4VjnuJ-11" value="&lt;font color=&quot;#000000&quot;&gt;&lt;b&gt;Subscriber&lt;/b&gt;&lt;/font&gt;" style="rounded=1;whiteSpace=wrap;html=1;fontSize=16;fontColor=#FFFFFF;" parent="SegviojQ2A9W4i4VjnuJ-1" vertex="1">
                    <mxGeometry x="30" y="250" width="130" height="70" as="geometry"/>
                </mxCell>
                <mxCell id="SegviojQ2A9W4i4VjnuJ-12" style="edgeStyle=none;html=1;strokeColor=default;strokeWidth=3;fontSize=16;fontColor=#000000;endArrow=none;endFill=0;" parent="SegviojQ2A9W4i4VjnuJ-1" source="SegviojQ2A9W4i4VjnuJ-4" target="SegviojQ2A9W4i4VjnuJ-11" edge="1">
                    <mxGeometry relative="1" as="geometry"/>
                </mxCell>
            </root>
        </mxGraphModel>
    </diagram>
</mxfile>